<mxfile host="app.diagrams.net" modified="2023-12-08T01:47:05.470Z" agent="Mozilla/5.0 (Windows NT 10.0; Win64; x64) AppleWebKit/537.36 (KHTML, like Gecko) Chrome/119.0.0.0 Safari/537.36" version="22.1.7" etag="EZwUmKcrgyMmP4I01R1c" type="github">
  <diagram name="Page-1" id="8CeR9FBDzF2Aq8_iA0z8">
    <mxGraphModel>
      <root>
        <mxCell id="0" />
        <mxCell id="1" parent="0" />
      </root>
    </mxGraphModel>
  </diagram>
</mxfile>
